HIERARCHY
ROOT Hips
{
	OFFSET 0.00000 0.00000 0.00000
	CHANNELS 6 Xposition Yposition Zposition Zrotation Yrotation Xrotation 
	JOINT LHipJoint
	{
		OFFSET 0 0 0
		CHANNELS 3 Zrotation Yrotation Xrotation
		JOINT LeftUpLeg
		{
			OFFSET 1.88772 -1.62769 0.85636
			CHANNELS 3 Zrotation Yrotation Xrotation
			JOINT LeftLeg
			{
				OFFSET 2.39836 -6.58946 0.00000
				CHANNELS 3 Zrotation Yrotation Xrotation
				JOINT LeftFoot
				{
					OFFSET 2.78523 -7.65237 0.00000
					CHANNELS 3 Zrotation Yrotation Xrotation
					JOINT LeftToeBase
					{
						OFFSET 0.19551 -0.53715 1.90694
						CHANNELS 3 Zrotation Yrotation Xrotation
						End Site
						{
							OFFSET 0.00000 -0.00000 0.99735
						}
					}
				}
			}
		}
	}
	JOINT RHipJoint
	{
		OFFSET 0 0 0
		CHANNELS 3 Zrotation Yrotation Xrotation
		JOINT RightUpLeg
		{
			OFFSET -1.74282 -1.62769 0.85636
			CHANNELS 3 Zrotation Yrotation Xrotation
			JOINT RightLeg
			{
				OFFSET -2.36062 -6.48575 0.00000
				CHANNELS 3 Zrotation Yrotation Xrotation
				JOINT RightFoot
				{
					OFFSET -2.76258 -7.59014 0.00000
					CHANNELS 3 Zrotation Yrotation Xrotation
					JOINT RightToeBase
					{
						OFFSET -0.19308 -0.53048 2.03952
						CHANNELS 3 Zrotation Yrotation Xrotation
						End Site
						{
							OFFSET -0.00000 -0.00000 1.06031
						}
					}
				}
			}
		}
	}
	JOINT LowerBack
	{
		OFFSET 0 0 0
		CHANNELS 3 Zrotation Yrotation Xrotation
		JOINT Spine
		{
			OFFSET -0.08299 2.03160 -0.30721
			CHANNELS 3 Zrotation Yrotation Xrotation
			JOINT Spine1
			{
				OFFSET -0.01030 2.00603 0.13891
				CHANNELS 3 Zrotation Yrotation Xrotation
				JOINT Neck
				{
					OFFSET 0 0 0
					CHANNELS 3 Zrotation Yrotation Xrotation
					JOINT Neck1
					{
						OFFSET 0.04282 1.69578 0.19991
						CHANNELS 3 Zrotation Yrotation Xrotation
						JOINT Head
						{
							OFFSET -0.08665 1.66622 -0.03785
							CHANNELS 3 Zrotation Yrotation Xrotation
							End Site
							{
								OFFSET -0.03699 1.83329 -0.04094
							}
						}
					}
				}
				JOINT LeftShoulder
				{
					OFFSET 0 0 0
					CHANNELS 3 Zrotation Yrotation Xrotation
					JOINT LeftArm
					{
						OFFSET 3.04219 1.50803 -0.05347
						CHANNELS 3 Zrotation Yrotation Xrotation
						JOINT LeftForeArm
						{
							OFFSET 5.79199 -0.00000 0.00000
							CHANNELS 3 Zrotation Yrotation Xrotation
							JOINT LeftHand
							{
								OFFSET 3.49908 -0.00000 0.00000
								CHANNELS 3 Zrotation Yrotation Xrotation
								JOINT LeftFingerBase
								{
									OFFSET 0 0 0
									CHANNELS 3 Zrotation Yrotation Xrotation
									JOINT LeftHandIndex1
									{
										OFFSET 0.59386 -0.00000 0.00000
										CHANNELS 3 Zrotation Yrotation Xrotation
										End Site
										{
											OFFSET 0.47879 -0.00000 0.00000
										}
									}
								}
								JOINT LThumb
								{
									OFFSET 0 0 0
									CHANNELS 3 Zrotation Yrotation Xrotation
									End Site
									{
										OFFSET 0.48610 -0.00000 0.48610
									}
								}
							}
						}
					}
				}
				JOINT RightShoulder
				{
					OFFSET 0 0 0
					CHANNELS 3 Zrotation Yrotation Xrotation
					JOINT RightArm
					{
						OFFSET -3.30316 1.18853 0.11175
						CHANNELS 3 Zrotation Yrotation Xrotation
						JOINT RightForeArm
						{
							OFFSET -5.73799 -0.00000 0.00000
							CHANNELS 3 Zrotation Yrotation Xrotation
							JOINT RightHand
							{
								OFFSET -3.57916 -0.00000 -0.00000
								CHANNELS 3 Zrotation Yrotation Xrotation
								JOINT RightFingerBase
								{
									OFFSET 0 0 0
									CHANNELS 3 Zrotation Yrotation Xrotation
									JOINT RightHandIndex1
									{
										OFFSET -0.61558 -0.00000 0.00000
										CHANNELS 3 Zrotation Yrotation Xrotation
										End Site
										{
											OFFSET -0.49629 -0.00000 0.00000
										}
									}
								}
								JOINT RThumb
								{
									OFFSET 0 0 0
									CHANNELS 3 Zrotation Yrotation Xrotation
									End Site
									{
										OFFSET -0.50387 -0.00000 0.50387
									}
								}
							}
						}
					}
				}
			}
		}
	}
}
MOTION
Frames: 13
Frame Time: 0.00884956
0.00 0.00 0.00 4.8441 22.4519 -702.3340 0.0000 0.0000 0.0000 -19.0893 -12.5179 -58.4792 10.8605 17.8661 62.3277 -0.2112 -9.5468 -1.8710 2.2278 -9.3253 -26.8184 0.0000 0.0000 0.0000 27.5567 -2.9718 12.3788 -0.6890 -5.3065 14.7850 -1.5791 -15.3527 23.4374 -0.1724 2.6748 -7.3747 -0.2524 2.5412 4.5584 -0.2762 3.3833 -3.9256 -0.4940 1.6792 -6.6425 4.4658 -2.6380 -5.2401 -0.9166 -3.7373 -3.1705 -1.0687 -1.9108 -0.2102 -0.0000 -0.0000 0.0000 -71.5777 35.3994 37.2539 37.5362 -46.5405 -16.6281 -0.0000 0.0000 -28.3471 15.1692 -22.4864 -5.9200 -7.1250 0.0000 -0.0000 -8.6145 6.9831 7.5917 -0.0000 -0.0000 0.0000 64.0992 -13.1373 50.0981 -132.0845 52.1194 -95.4809 0.0000 -0.0000 -13.9607 -26.1575 -24.0673 11.3260 7.1250 -0.0000 -0.0000 3.4927 -56.4006 -0.9772
0.00 0.00 0.00 2.6737 21.2135 -703.5830 0.0000 0.0000 0.0000 -18.2503 -10.7224 -52.9863 8.5743 16.5258 54.6059 -0.0092 -6.3770 -4.2213 0.7993 -5.7062 -15.9344 0.0000 0.0000 0.0000 29.2789 -2.8246 4.8545 -3.8134 -11.9079 35.4068 -0.1727 -20.7960 15.9830 -0.0244 1.0081 -2.7710 0.4820 2.4267 3.2571 -0.2888 3.2755 -3.7208 -0.8336 1.6019 -5.6358 3.4531 -2.0633 -7.1080 1.8724 -3.0507 -0.2749 -0.0877 -1.4805 1.0756 0.0000 -0.0000 0.0000 -69.0662 33.0538 36.9572 41.0775 -48.6955 -19.2448 -0.0000 0.0000 -30.6652 18.3126 -23.1338 -7.4085 -7.1250 0.0000 -0.0000 -6.6911 5.8899 6.0112 0.0000 -0.0000 0.0000 66.1265 -15.5700 53.0135 -121.6920 55.8419 -87.0630 0.0000 -0.0000 -13.5180 -25.8492 -26.8230 12.3317 7.1250 -0.0000 -0.0000 4.8998 -59.2428 -1.7074
0.00 0.00 0.00 2.4937 20.6116 -704.3600 0.0000 0.0000 0.0000 -18.5868 -10.7728 -47.6335 7.2411 15.5316 49.7804 0.0160 -3.3686 -3.0800 0.9245 -6.1255 -17.1489 0.0000 0.0000 0.0000 29.0947 -2.4440 -1.3788 -8.0005 -16.1196 52.5646 -0.4992 -18.9640 17.3520 -0.0776 1.7966 -4.9439 -0.1655 2.1674 3.0962 -0.6798 2.8694 -3.5917 -0.8341 1.4194 -5.4255 4.2410 -1.8865 -6.0323 2.1673 -2.8123 -0.6495 -0.1022 -1.3717 0.7686 0.0000 0.0000 0.0000 -66.6146 29.5975 37.2628 42.1377 -49.2866 -20.0449 -0.0000 0.0000 -31.4578 19.2279 -23.1256 -7.8000 -7.1250 0.0000 -0.0000 -6.1202 5.7600 5.5073 0.0000 0.0000 0.0000 67.7537 -17.4105 55.4130 -109.3001 58.5447 -76.6327 0.0000 -0.0000 -14.5665 -26.2126 -29.2481 13.5256 7.1250 -0.0000 -0.0000 5.6487 -61.8638 -2.3215
0.00 0.00 0.00 8.0718 18.3184 -705.8320 0.0000 0.0000 0.0000 -25.4659 -9.0844 -23.4208 5.7794 14.2112 44.0900 1.3049 -8.1440 -20.4347 1.7681 -8.3653 -23.8293 0.0000 0.0000 0.0000 13.8108 -2.1320 -43.0054 -30.5944 -17.0617 122.5176 -0.5283 -5.4143 12.9534 -0.0079 -0.5751 1.5804 -9.1424 0.1843 6.6007 -1.9764 -0.7405 -3.1144 3.1319 0.0091 -6.9423 5.2920 -0.4393 -5.8109 0.3536 -0.9075 -1.5439 -0.7894 -0.4673 0.4667 0.0000 0.0000 0.0000 -59.3071 7.1358 39.3392 51.9333 -53.7461 -27.7257 -0.0000 0.0000 -34.0756 21.2953 -21.3772 -8.0865 -7.1250 0.0000 -0.0000 -4.6747 7.2544 4.0609 0.0000 0.0000 0.0000 74.1728 -26.3425 57.5978 -43.3227 49.9198 -20.9474 0.0000 -0.0000 -8.1310 -30.8302 -41.5716 21.6052 7.1250 -0.0000 -0.0000 11.1593 -75.6779 -8.0735
0.00 0.00 0.00 8.7462 16.8424 -707.4440 0.0000 0.0000 0.0000 -26.8745 -4.7694 -6.1457 2.8379 10.4279 30.3739 0.5806 -7.2408 -13.7336 2.0497 -8.9688 -25.6976 0.0000 0.0000 0.0000 11.9367 2.7185 -58.9249 -29.1797 -17.8460 117.8033 -0.1790 -1.1444 7.6689 -0.1093 2.1318 -5.8699 -8.5989 -0.5830 8.4779 -1.4829 -1.9002 -3.2157 3.5388 -0.5246 -7.9916 4.4320 0.2459 -8.4297 -0.0038 -0.1109 0.7194 -0.7626 -0.0315 1.6606 0.0000 -0.0000 0.0000 -61.5293 0.0731 43.0629 75.8308 -59.2276 -47.7609 -0.0000 0.0000 -38.1547 19.2196 -23.7802 -8.0019 -7.1250 0.0000 -0.0000 -6.1797 5.0873 5.6410 0.0000 -0.0000 0.0000 76.9085 -29.2596 53.5065 -27.8501 38.9779 -10.0293 0.0000 -0.0000 -9.7627 -27.1907 -38.8055 17.8455 7.1250 -0.0000 -0.0000 12.5203 -71.7513 -8.0075
0.00 0.00 0.00 9.0948 17.0707 -707.7040 0.0000 0.0000 0.0000 -26.7708 -4.4614 2.3027 1.8948 8.6435 24.6864 -0.0015 0.8732 -0.9053 3.7904 -11.8761 -35.2950 0.0000 0.0000 0.0000 12.5290 4.5610 -60.9698 -23.7770 -19.6545 101.1045 -0.1323 -1.7220 6.4854 -0.0605 1.5867 -4.3646 -8.2902 -1.7684 7.0926 -0.4282 -3.2728 -3.9002 4.6322 -1.1774 -7.7073 3.7127 0.7204 -7.4496 -0.0987 0.6151 2.4950 -0.6443 0.3452 2.0798 0.0000 0.0000 0.0000 -63.8897 1.9282 47.3576 95.3916 -59.8899 -64.6676 -0.0000 0.0000 -41.0912 18.5202 -26.7290 -8.5682 -7.1250 0.0000 -0.0000 -6.8728 2.1826 6.6547 0.0000 0.0000 0.0000 77.1370 -30.2470 51.4118 -20.1248 30.7924 -5.5951 0.0000 -0.0000 -6.6722 -22.3817 -32.5030 12.4772 7.1250 -0.0000 -0.0000 12.3239 -64.1436 -5.7581
0.00 0.00 0.00 8.0217 15.5964 -708.8360 0.0000 0.0000 0.0000 -25.1069 -2.1722 6.0235 1.7024 8.2165 23.3737 0.2870 11.8012 11.8511 0.9700 -6.2704 -17.5711 0.0000 0.0000 0.0000 14.2542 7.0806 -57.8399 -17.2850 -19.8223 82.0393 -0.2501 -2.8036 8.8950 -0.1122 2.1601 -5.9484 -6.9444 -1.9904 5.6568 0.5047 -3.2343 -3.5585 4.7800 -1.2666 -6.5135 3.8437 0.8514 -7.5383 -1.3667 0.8301 2.8734 -1.0669 0.4203 2.2400 -0.0000 0.0000 0.0000 -65.2259 3.0052 50.3342 107.6150 -58.7945 -75.1933 -0.0000 0.0000 -41.5057 14.6395 -29.0153 -7.2210 -7.1250 0.0000 -0.0000 -9.3736 0.5041 9.4180 -0.0000 0.0000 0.0000 78.2222 -29.5781 46.3817 -15.7038 25.1174 -3.5193 0.0000 -0.0000 -2.7720 -19.5819 -31.7967 10.6161 7.1250 -0.0000 -0.0000 15.0132 -62.7105 -6.5363
0.00 0.00 0.00 8.8045 14.0239 -710.6490 0.0000 0.0000 0.0000 -24.9294 1.7581 8.6739 2.2127 9.2958 26.7251 1.3055 13.8192 21.2430 0.3824 -3.9713 -10.9959 0.0000 0.0000 0.0000 14.0280 8.3307 -51.1484 -10.3226 -17.5873 60.5612 -0.4666 -3.8316 12.1636 -0.1950 2.8440 -7.8449 -6.7200 -2.0000 5.9233 0.5299 -3.2202 -2.8797 4.6714 -1.3096 -5.9524 3.7894 0.9654 -8.3621 -2.1687 1.0023 3.7635 -1.3179 0.4827 2.7063 0.0000 0.0000 0.0000 -65.5251 4.0419 53.5357 115.0965 -57.4810 -81.5504 -0.0000 0.0000 -40.8685 11.6016 -31.9928 -6.2076 -7.1250 0.0000 -0.0000 -11.3546 -1.9862 11.9758 0.0000 0.0000 0.0000 80.0674 -29.0924 36.9867 -13.4959 22.0095 -2.6362 0.0000 0.0000 3.0048 -15.6078 -33.1435 8.6838 7.1250 -0.0000 -0.0000 20.5985 -62.9559 -9.1820
0.00 0.00 0.00 10.5519 12.0916 -710.8670 0.0000 0.0000 0.0000 -25.4502 5.1554 8.0981 3.6316 11.6534 34.5165 1.1238 12.2101 19.5510 0.8236 -5.7902 -16.1769 0.0000 0.0000 0.0000 11.7047 12.1906 -44.7589 -5.0233 -13.4100 40.9233 -0.4134 -5.8383 11.5417 -0.8192 5.7750 -16.1331 -7.8238 -2.0505 4.9334 0.2989 -3.3145 -3.0812 5.0096 -1.3302 -5.5497 4.2448 1.2899 -7.3391 -3.2146 1.4987 4.3632 -1.7228 0.7104 2.7580 -0.0000 -0.0000 0.0000 -66.3882 6.1280 56.0300 116.8480 -57.0930 -83.0242 -0.0000 0.0000 -41.1701 9.0015 -31.2675 -4.7003 -7.1250 0.0000 -0.0000 -12.7688 -0.9210 13.3052 -0.0000 -0.0000 0.0000 80.6646 -29.2418 32.2322 -12.4830 20.5251 -2.2688 0.0000 0.0000 3.3931 -10.5181 -34.1816 5.9550 7.1250 -0.0000 -0.0000 27.0838 -62.5789 -12.0312
0.00 0.00 0.00 13.0843 9.2457 -711.7370 0.0000 0.0000 0.0000 -25.9496 8.4911 5.5246 7.5608 15.7865 50.9647 1.2142 13.2544 20.4593 1.5095 -7.7594 -21.9856 0.0000 0.0000 0.0000 12.9522 10.3150 -39.1834 -1.9195 -8.6963 24.8498 0.5308 -15.8684 4.2330 -0.9826 6.3098 -17.6860 -9.3597 -1.7835 2.8337 -0.3621 -2.8780 -3.2167 5.0475 -1.1149 -4.5313 4.1950 1.3406 -6.6570 -4.1331 1.6852 5.6176 -2.0213 0.7789 3.0801 0.0000 0.0000 0.0000 -67.3471 9.7610 59.1388 110.0892 -58.4188 -77.3054 -0.0000 0.0000 -41.9823 7.7924 -28.3571 -3.7189 -7.1250 0.0000 -0.0000 -13.3270 2.0602 13.2054 0.0000 0.0000 0.0000 81.0844 -30.7046 30.7772 -13.0446 21.3525 -2.4695 0.0000 -0.0000 -0.7179 -10.7689 -33.7015 6.0244 7.1250 -0.0000 -0.0000 26.3359 -62.2216 -11.4518
0.00 0.00 0.00 13.6099 7.6083 -713.6930 0.0000 0.0000 0.0000 -24.4169 8.7989 1.1610 12.9419 18.7611 68.9449 0.7007 17.9949 18.3558 0.1320 -2.3421 -6.4520 0.0000 0.0000 0.0000 18.4510 4.0643 -40.0862 -3.0940 -10.8458 31.7615 0.2280 -9.4845 1.1636 -0.5547 -4.7708 13.2560 -8.6155 -1.6188 3.3555 -0.6743 -2.7006 -3.4108 4.3206 -1.0268 -5.1021 4.1275 1.7263 -5.6693 -4.5962 2.2807 5.7716 -2.1370 1.0676 2.9821 0.0000 -0.0000 0.0000 -67.7106 13.9367 60.3389 100.1144 -59.6099 -68.7478 -0.0000 0.0000 -38.5019 8.8990 -25.7235 -3.8878 -7.1250 0.0000 -0.0000 -12.5910 4.5105 11.8575 0.0000 -0.0000 0.0000 80.4006 -32.0653 34.0962 -14.2981 23.1593 -2.9443 0.0000 -0.0000 -3.9798 -10.7180 -30.7470 5.5272 7.1250 -0.0000 -0.0000 23.7343 -59.5692 -8.7434
0.00 0.00 0.00 10.7062 3.7755 -718.0830 0.0000 0.0000 0.0000 -18.3511 10.6731 -3.3646 18.4818 19.9446 85.5571 0.4519 13.6264 14.3493 0.1814 -2.7430 -7.5641 0.0000 0.0000 0.0000 21.6523 8.2084 -36.7901 -6.0406 -14.4675 45.1443 -0.0648 -7.2857 -11.7417 -0.0809 -1.8346 5.0487 -5.3341 -0.9016 7.1899 0.0384 -1.7249 -2.3997 3.2540 -0.6322 -6.4040 4.7160 2.6142 -6.1277 -5.0807 3.4138 5.0365 -2.3499 1.6225 2.9068 0.0000 -0.0000 0.0000 -70.0323 16.6943 57.6117 82.9462 -59.8112 -53.8951 -0.0000 0.0000 -31.5743 13.2859 -25.1216 -5.7246 -7.1250 0.0000 -0.0000 -9.9151 4.5816 9.2335 0.0000 -0.0000 0.0000 78.7198 -29.2226 40.0132 -14.9825 24.1218 -3.2188 0.0000 -0.0000 -7.4846 -12.4475 -31.3750 6.5558 7.1250 -0.0000 -0.0000 22.4510 -60.5444 -8.7660
0.00 0.00 0.00 8.5832 -12.8609 -719.5670 0.0000 0.0000 0.0000 -17.9772 -15.0927 -40.4416 9.0378 16.8320 56.2208 -0.2404 8.7365 -4.4734 1.3627 -7.3888 -20.8723 0.0000 0.0000 0.0000 24.7830 6.3331 -6.6696 -5.7945 -14.2262 44.1512 -0.9999 2.8501 -18.1573 -0.2414 3.1617 -8.7292 -2.1634 1.2926 5.6972 -0.3091 1.5343 -2.5714 0.7270 0.8342 -5.9226 6.3535 3.1657 -6.6000 -4.5659 3.9867 6.7590 -2.4560 1.9624 3.6622 0.0000 -0.0000 0.0000 -73.0893 23.7611 48.4001 28.5398 -39.6085 -10.4661 -0.0000 0.0000 -21.1773 6.4423 -23.4446 -2.5723 -7.1250 0.0000 -0.0000 -14.0469 6.9753 12.6326 0.0000 -0.0000 0.0000 74.3048 -21.8020 51.4137 -48.8147 52.5061 -25.2306 0.0000 -0.0000 -20.5704 -22.7767 -33.9323 13.1911 7.1250 -0.0000 -0.0000 13.0426 -65.6553 -6.5564
